<mxfile host="65bd71144e">
    <diagram id="X2ZxIjBmREGLD9pnya73" name="Page-1">
        <mxGraphModel dx="2014" dy="1950" grid="1" gridSize="10" guides="1" tooltips="1" connect="1" arrows="1" fold="1" page="0" pageScale="1" pageWidth="850" pageHeight="1100" math="0" shadow="0">
            <root>
                <mxCell id="0"/>
                <mxCell id="1" parent="0"/>
                <mxCell id="34" value="" style="whiteSpace=wrap;html=1;aspect=fixed;fillColor=#BDBDBD;" parent="1" vertex="1">
                    <mxGeometry x="440" y="120" width="160" height="160" as="geometry"/>
                </mxCell>
                <mxCell id="2" value="" style="whiteSpace=wrap;html=1;aspect=fixed;" parent="1" vertex="1">
                    <mxGeometry x="120" y="280" width="160" height="160" as="geometry"/>
                </mxCell>
                <mxCell id="3" value="" style="whiteSpace=wrap;html=1;aspect=fixed;fillColor=#BDBDBD;" parent="1" vertex="1">
                    <mxGeometry x="280" y="280" width="160" height="160" as="geometry"/>
                </mxCell>
                <mxCell id="4" value="" style="whiteSpace=wrap;html=1;aspect=fixed;fillColor=#BDBDBD;" parent="1" vertex="1">
                    <mxGeometry x="120" y="440" width="160" height="160" as="geometry"/>
                </mxCell>
                <mxCell id="5" value="" style="whiteSpace=wrap;html=1;aspect=fixed;" parent="1" vertex="1">
                    <mxGeometry x="280" y="440" width="160" height="160" as="geometry"/>
                </mxCell>
                <mxCell id="6" value="" style="shape=cylinder3;whiteSpace=wrap;html=1;boundedLbl=1;backgroundOutline=1;size=15;" parent="1" vertex="1">
                    <mxGeometry x="330" y="340" width="60" height="80" as="geometry"/>
                </mxCell>
                <mxCell id="7" value="" style="shape=xor;whiteSpace=wrap;html=1;rotation=-90;fillColor=#008a00;fontColor=#ffffff;strokeColor=#005700;" parent="1" vertex="1">
                    <mxGeometry x="330" y="290" width="60" height="80" as="geometry"/>
                </mxCell>
                <mxCell id="8" value="" style="ellipse;shape=cloud;whiteSpace=wrap;html=1;" parent="1" vertex="1">
                    <mxGeometry x="30" y="620" width="640" height="400" as="geometry"/>
                </mxCell>
                <mxCell id="9" value="" style="shape=cylinder3;whiteSpace=wrap;html=1;boundedLbl=1;backgroundOutline=1;size=15;" parent="1" vertex="1">
                    <mxGeometry x="330" y="750" width="60" height="80" as="geometry"/>
                </mxCell>
                <mxCell id="10" value="" style="shape=xor;whiteSpace=wrap;html=1;rotation=-90;fillColor=#008a00;fontColor=#ffffff;strokeColor=#005700;" parent="1" vertex="1">
                    <mxGeometry x="330" y="700" width="60" height="80" as="geometry"/>
                </mxCell>
                <mxCell id="11" value="" style="endArrow=none;dashed=1;html=1;dashPattern=1 3;strokeWidth=2;entryX=0.5;entryY=1;entryDx=0;entryDy=0;entryPerimeter=0;exitX=1;exitY=0.5;exitDx=0;exitDy=0;exitPerimeter=0;" parent="1" source="10" target="6" edge="1">
                    <mxGeometry width="50" height="50" relative="1" as="geometry">
                        <mxPoint x="-40" y="670" as="sourcePoint"/>
                        <mxPoint x="10" y="620" as="targetPoint"/>
                    </mxGeometry>
                </mxCell>
                <mxCell id="12" value="" style="shape=cylinder3;whiteSpace=wrap;html=1;boundedLbl=1;backgroundOutline=1;size=15;fillColor=#BDBDBD;rotation=-180;" parent="1" vertex="1">
                    <mxGeometry x="490" y="135" width="60" height="80" as="geometry"/>
                </mxCell>
                <mxCell id="13" value="" style="shape=xor;whiteSpace=wrap;html=1;rotation=-90;fillColor=#6a00ff;fontColor=#ffffff;strokeColor=#3700CC;" parent="1" vertex="1">
                    <mxGeometry x="490" y="185" width="60" height="80" as="geometry"/>
                </mxCell>
                <mxCell id="16" value="" style="whiteSpace=wrap;html=1;aspect=fixed;" parent="1" vertex="1">
                    <mxGeometry x="440" y="280" width="160" height="160" as="geometry"/>
                </mxCell>
                <mxCell id="17" value="" style="whiteSpace=wrap;html=1;aspect=fixed;fillColor=#BDBDBD;" parent="1" vertex="1">
                    <mxGeometry x="600" y="280" width="160" height="160" as="geometry"/>
                </mxCell>
                <mxCell id="18" value="" style="whiteSpace=wrap;html=1;aspect=fixed;fillColor=#BDBDBD;" parent="1" vertex="1">
                    <mxGeometry x="440" y="440" width="160" height="160" as="geometry"/>
                </mxCell>
                <mxCell id="19" value="" style="whiteSpace=wrap;html=1;aspect=fixed;" parent="1" vertex="1">
                    <mxGeometry x="600" y="440" width="160" height="160" as="geometry"/>
                </mxCell>
                <mxCell id="24" value="" style="whiteSpace=wrap;html=1;aspect=fixed;" parent="1" vertex="1">
                    <mxGeometry x="120" y="-40" width="160" height="160" as="geometry"/>
                </mxCell>
                <mxCell id="25" value="" style="whiteSpace=wrap;html=1;aspect=fixed;fillColor=#BDBDBD;" parent="1" vertex="1">
                    <mxGeometry x="280" y="-40" width="160" height="160" as="geometry"/>
                </mxCell>
                <mxCell id="26" value="" style="whiteSpace=wrap;html=1;aspect=fixed;fillColor=#BDBDBD;" parent="1" vertex="1">
                    <mxGeometry x="120" y="120" width="160" height="160" as="geometry"/>
                </mxCell>
                <mxCell id="27" value="" style="whiteSpace=wrap;html=1;aspect=fixed;" parent="1" vertex="1">
                    <mxGeometry x="280" y="120" width="160" height="160" as="geometry"/>
                </mxCell>
                <mxCell id="32" value="" style="whiteSpace=wrap;html=1;aspect=fixed;" parent="1" vertex="1">
                    <mxGeometry x="440" y="-40" width="160" height="160" as="geometry"/>
                </mxCell>
                <mxCell id="33" value="" style="whiteSpace=wrap;html=1;aspect=fixed;fillColor=#BDBDBD;" parent="1" vertex="1">
                    <mxGeometry x="600" y="-40" width="160" height="160" as="geometry"/>
                </mxCell>
                <mxCell id="35" value="" style="whiteSpace=wrap;html=1;aspect=fixed;" parent="1" vertex="1">
                    <mxGeometry x="600" y="120" width="160" height="160" as="geometry"/>
                </mxCell>
                <mxCell id="36" value="" style="shape=cylinder3;whiteSpace=wrap;html=1;boundedLbl=1;backgroundOutline=1;size=15;" parent="1" vertex="1">
                    <mxGeometry x="170" y="512.5" width="60" height="80" as="geometry"/>
                </mxCell>
                <mxCell id="37" value="" style="rhombus;whiteSpace=wrap;html=1;fillColor=#e3c800;fontColor=#000000;strokeColor=#B09500;" parent="1" vertex="1">
                    <mxGeometry x="160" y="447.5" width="80" height="80" as="geometry"/>
                </mxCell>
                <mxCell id="38" value="" style="shape=cylinder3;whiteSpace=wrap;html=1;boundedLbl=1;backgroundOutline=1;size=15;" parent="1" vertex="1">
                    <mxGeometry x="170" y="815" width="60" height="80" as="geometry"/>
                </mxCell>
                <mxCell id="39" value="" style="rhombus;whiteSpace=wrap;html=1;fillColor=#e3c800;fontColor=#000000;strokeColor=#B09500;" parent="1" vertex="1">
                    <mxGeometry x="160" y="750" width="80" height="80" as="geometry"/>
                </mxCell>
                <mxCell id="40" value="" style="endArrow=none;dashed=1;html=1;dashPattern=1 3;strokeWidth=2;entryX=0.5;entryY=1;entryDx=0;entryDy=0;entryPerimeter=0;exitX=0.5;exitY=0;exitDx=0;exitDy=0;" parent="1" source="39" target="36" edge="1">
                    <mxGeometry width="50" height="50" relative="1" as="geometry">
                        <mxPoint x="20" y="750" as="sourcePoint"/>
                        <mxPoint x="70" y="700" as="targetPoint"/>
                    </mxGeometry>
                </mxCell>
                <mxCell id="41" value="" style="ellipse;shape=cloud;whiteSpace=wrap;html=1;fillColor=#BDBDBD;" parent="1" vertex="1">
                    <mxGeometry x="120" y="-480" width="640" height="400" as="geometry"/>
                </mxCell>
                <mxCell id="42" value="" style="shape=cylinder3;whiteSpace=wrap;html=1;boundedLbl=1;backgroundOutline=1;size=15;fillColor=#BDBDBD;rotation=-180;" parent="1" vertex="1">
                    <mxGeometry x="490" y="-310" width="60" height="80" as="geometry"/>
                </mxCell>
                <mxCell id="43" value="" style="shape=xor;whiteSpace=wrap;html=1;rotation=-90;fillColor=#6a00ff;fontColor=#ffffff;strokeColor=#3700CC;" parent="1" vertex="1">
                    <mxGeometry x="490" y="-260" width="60" height="80" as="geometry"/>
                </mxCell>
                <mxCell id="44" value="" style="endArrow=none;dashed=1;html=1;dashPattern=1 3;strokeWidth=2;entryX=0.25;entryY=0.5;entryDx=0;entryDy=0;entryPerimeter=0;exitX=0.5;exitY=1;exitDx=0;exitDy=0;exitPerimeter=0;" parent="1" source="12" target="43" edge="1">
                    <mxGeometry width="50" height="50" relative="1" as="geometry">
                        <mxPoint x="700" y="-70" as="sourcePoint"/>
                        <mxPoint x="750" y="-120" as="targetPoint"/>
                    </mxGeometry>
                </mxCell>
                <mxCell id="45" value="" style="shape=cylinder3;whiteSpace=wrap;html=1;boundedLbl=1;backgroundOutline=1;size=15;" parent="1" vertex="1">
                    <mxGeometry x="830" y="170" width="60" height="80" as="geometry"/>
                </mxCell>
                <mxCell id="46" value="" style="shape=xor;whiteSpace=wrap;html=1;rotation=-90;fillColor=#008a00;fontColor=#ffffff;strokeColor=#005700;" parent="1" vertex="1">
                    <mxGeometry x="830" y="122.5" width="60" height="80" as="geometry"/>
                </mxCell>
                <mxCell id="47" value="Pawn" style="text;html=1;align=center;verticalAlign=middle;resizable=0;points=[];autosize=1;strokeColor=none;fillColor=none;fontStyle=1" parent="1" vertex="1">
                    <mxGeometry x="835" y="70" width="50" height="20" as="geometry"/>
                </mxCell>
                <mxCell id="48" value="Forward One&lt;br&gt;Capture Left&lt;br&gt;Capture Right&lt;br&gt;Forward Two&lt;br&gt;En Passent Left&lt;br&gt;En Passent Right" style="text;html=1;strokeColor=none;fillColor=none;align=center;verticalAlign=top;whiteSpace=wrap;rounded=0;" parent="1" vertex="1">
                    <mxGeometry x="780" y="280" width="160" height="120" as="geometry"/>
                </mxCell>
                <mxCell id="49" value="" style="shape=cylinder3;whiteSpace=wrap;html=1;boundedLbl=1;backgroundOutline=1;size=15;rotation=0;" parent="1" vertex="1">
                    <mxGeometry x="990" y="170" width="60" height="80" as="geometry"/>
                </mxCell>
                <mxCell id="50" value="" style="shape=xor;whiteSpace=wrap;html=1;rotation=90;fillColor=#6a00ff;fontColor=#ffffff;strokeColor=#3700CC;" parent="1" vertex="1">
                    <mxGeometry x="990" y="115" width="60" height="80" as="geometry"/>
                </mxCell>
                <mxCell id="51" value="Bishop" style="text;html=1;align=center;verticalAlign=middle;resizable=0;points=[];autosize=1;strokeColor=none;fillColor=none;fontStyle=1" parent="1" vertex="1">
                    <mxGeometry x="990" y="70" width="60" height="20" as="geometry"/>
                </mxCell>
                <mxCell id="52" value="" style="shape=cylinder3;whiteSpace=wrap;html=1;boundedLbl=1;backgroundOutline=1;size=15;" parent="1" vertex="1">
                    <mxGeometry x="1630" y="170" width="60" height="80" as="geometry"/>
                </mxCell>
                <mxCell id="53" value="" style="rhombus;whiteSpace=wrap;html=1;fillColor=#e3c800;fontColor=#000000;strokeColor=#B09500;" parent="1" vertex="1">
                    <mxGeometry x="1620" y="105" width="80" height="80" as="geometry"/>
                </mxCell>
                <mxCell id="54" value="King" style="text;html=1;align=center;verticalAlign=middle;resizable=0;points=[];autosize=1;strokeColor=none;fillColor=none;fontStyle=1" parent="1" vertex="1">
                    <mxGeometry x="1640" y="70" width="40" height="20" as="geometry"/>
                </mxCell>
                <mxCell id="55" value="" style="shape=cylinder3;whiteSpace=wrap;html=1;boundedLbl=1;backgroundOutline=1;size=15;" parent="1" vertex="1">
                    <mxGeometry x="1310" y="170" width="60" height="80" as="geometry"/>
                </mxCell>
                <mxCell id="60" value="Rook" style="text;html=1;align=center;verticalAlign=middle;resizable=0;points=[];autosize=1;strokeColor=none;fillColor=none;fontStyle=1" parent="1" vertex="1">
                    <mxGeometry x="1315" y="70" width="50" height="20" as="geometry"/>
                </mxCell>
                <mxCell id="61" value="" style="shape=cylinder3;whiteSpace=wrap;html=1;boundedLbl=1;backgroundOutline=1;size=15;rotation=0;" parent="1" vertex="1">
                    <mxGeometry x="1150" y="170" width="60" height="80" as="geometry"/>
                </mxCell>
                <mxCell id="59" value="" style="triangle;whiteSpace=wrap;html=1;fillColor=#fa6800;fontColor=#000000;strokeColor=#C73500;" parent="1" vertex="1">
                    <mxGeometry x="1150" y="105" width="60" height="80" as="geometry"/>
                </mxCell>
                <mxCell id="62" value="Knight" style="text;html=1;align=center;verticalAlign=middle;resizable=0;points=[];autosize=1;strokeColor=none;fillColor=none;fontStyle=1" parent="1" vertex="1">
                    <mxGeometry x="1155" y="70" width="50" height="20" as="geometry"/>
                </mxCell>
                <mxCell id="64" value="" style="shape=cylinder3;whiteSpace=wrap;html=1;boundedLbl=1;backgroundOutline=1;size=15;" parent="1" vertex="1">
                    <mxGeometry x="1470" y="170" width="60" height="80" as="geometry"/>
                </mxCell>
                <mxCell id="65" value="" style="ellipse;whiteSpace=wrap;html=1;aspect=fixed;fillColor=#d80073;strokeColor=#A50040;fontColor=#ffffff;" parent="1" vertex="1">
                    <mxGeometry x="1470" y="120" width="60" height="60" as="geometry"/>
                </mxCell>
                <mxCell id="66" value="Queen" style="text;html=1;align=center;verticalAlign=middle;resizable=0;points=[];autosize=1;strokeColor=none;fillColor=none;fontStyle=1" parent="1" vertex="1">
                    <mxGeometry x="1475" y="80" width="50" height="20" as="geometry"/>
                </mxCell>
                <mxCell id="68" value="Diagnal Up Left [1-7]&lt;br&gt;Diagonal Up Right [1-7]&lt;br&gt;Diagnal Down Left [1-7]&lt;br&gt;Diagnal Down Right [1-7]" style="text;html=1;strokeColor=none;fillColor=none;align=center;verticalAlign=top;whiteSpace=wrap;rounded=0;" parent="1" vertex="1">
                    <mxGeometry x="940" y="280" width="160" height="120" as="geometry"/>
                </mxCell>
                <mxCell id="69" value="" style="shape=trapezoid;perimeter=trapezoidPerimeter;whiteSpace=wrap;html=1;fixedSize=1;fillColor=#e51400;rotation=-180;fontColor=#ffffff;strokeColor=#B20000;" parent="1" vertex="1">
                    <mxGeometry x="1297.5" y="135" width="85" height="55" as="geometry"/>
                </mxCell>
                <mxCell id="70" value="Up One Left Two&lt;br&gt;Up Two Left One&lt;br&gt;Up One RightTwo&lt;br&gt;Up Two Right One&lt;br&gt;Down One Left Two&lt;br&gt;Down&amp;nbsp;Two Left One&lt;br&gt;Down&amp;nbsp;One RightTwo&lt;br&gt;Down&amp;nbsp;Two Right One" style="text;html=1;strokeColor=none;fillColor=none;align=center;verticalAlign=top;whiteSpace=wrap;rounded=0;" parent="1" vertex="1">
                    <mxGeometry x="1100" y="280" width="160" height="160" as="geometry"/>
                </mxCell>
                <mxCell id="71" value="Left [1-7]&lt;br&gt;Up [1-7]&lt;br&gt;Right [1-7]&lt;br&gt;Down [1-7]&lt;br&gt;Castle Kingside&lt;br&gt;Castle Queenside" style="text;html=1;strokeColor=none;fillColor=none;align=center;verticalAlign=top;whiteSpace=wrap;rounded=0;" parent="1" vertex="1">
                    <mxGeometry x="1260" y="280" width="160" height="250" as="geometry"/>
                </mxCell>
                <mxCell id="75" value="Chessmen" style="rounded=0;whiteSpace=wrap;html=1;" parent="1" vertex="1">
                    <mxGeometry x="800" y="-50" width="920" height="60" as="geometry"/>
                </mxCell>
                <mxCell id="76" value="Left [1-7]&lt;br&gt;Up [1-7]&lt;br&gt;Right [1-7]&lt;br&gt;Down [1-7]&lt;br&gt;Diagnal Up Left [1-7]&lt;br&gt;Diagonal Up Right [1-7]&lt;br&gt;Diagnal Down Left [1-7]&lt;br&gt;Diagnal Down Right [1-7]" style="text;html=1;strokeColor=none;fillColor=none;align=center;verticalAlign=top;whiteSpace=wrap;rounded=0;" vertex="1" parent="1">
                    <mxGeometry x="1420" y="280" width="160" height="200" as="geometry"/>
                </mxCell>
                <mxCell id="77" value="Left&lt;br&gt;Up&lt;br&gt;Right&lt;br&gt;Down&lt;br&gt;Diagnal Up Left&lt;br&gt;Diagonal Up Right&lt;br&gt;Diagnal Down Left&lt;br&gt;Diagnal Down Right&lt;br&gt;Castle Kingside&lt;br&gt;Castle Queenside" style="text;html=1;strokeColor=none;fillColor=none;align=center;verticalAlign=top;whiteSpace=wrap;rounded=0;" vertex="1" parent="1">
                    <mxGeometry x="1580" y="280" width="160" height="160" as="geometry"/>
                </mxCell>
            </root>
        </mxGraphModel>
    </diagram>
</mxfile>